<svg width="31" height="30" viewBox="0 0 31 30" fill="none" xmlns="http://www.w3.org/2000/svg">
<g clip-path="url(#clip0_877_106)">
<path fill-rule="evenodd" clip-rule="evenodd" d="M23.7708 11.0818C23.7747 12.8629 23.2025 14.5976 22.1397 16.0268L15.4583 24.936L8.77693 16.0268C7.99464 14.9699 7.47425 13.7425 7.25849 12.4454C7.04274 11.1483 7.13778 9.81851 7.53581 8.56528C7.93384 7.31204 8.6235 6.17111 9.54814 5.2362C10.4728 4.30129 11.606 3.59907 12.8548 3.18722C14.1036 2.77538 15.4322 2.66566 16.7316 2.86707C18.031 3.06849 19.2641 3.5753 20.3296 4.34587C21.3951 5.11643 22.2626 6.12878 22.8608 7.29974C23.459 8.47071 23.7709 9.76689 23.7708 11.0818ZM26.5417 11.0818C26.5417 13.5571 25.7307 15.8403 24.3619 17.6838L17.1892 27.245L15.4583 29.554L13.7256 27.245L6.55472 17.6838C5.51046 16.2751 4.81533 14.6388 4.52645 12.9093C4.23756 11.1797 4.36317 9.40634 4.89294 7.73479C5.42272 6.06323 6.34154 4.54123 7.57392 3.29383C8.8063 2.04644 10.3171 1.10925 11.9821 0.559268C13.6471 0.00928944 15.4189 -0.137783 17.1518 0.130136C18.8847 0.398054 20.5293 1.07332 21.9505 2.10044C23.3717 3.12757 24.5289 4.47724 25.327 6.03857C26.1251 7.59989 26.5414 9.32831 26.5417 11.0818ZM15.4583 14.7763C16.4382 14.7763 17.3779 14.387 18.0707 13.6942C18.7635 13.0013 19.1528 12.0616 19.1528 11.0818C19.1528 10.102 18.7635 9.16229 18.0707 8.46945C17.3779 7.7766 16.4382 7.38737 15.4583 7.38737C14.4785 7.38737 13.5388 7.7766 12.846 8.46945C12.1531 9.16229 11.7639 10.102 11.7639 11.0818C11.7639 12.0616 12.1531 13.0013 12.846 13.6942C13.5388 14.387 14.4785 14.7763 15.4583 14.7763Z" fill="white"/>
</g>
<defs>
<clipPath id="clip0_877_106">
<rect width="29.5556" height="29.5556" fill="white" transform="translate(0.679688)"/>
</clipPath>
</defs>
</svg>
