<svg width="30" height="31" viewBox="0 0 30 31" fill="none" xmlns="http://www.w3.org/2000/svg">
<path d="M14.7776 5.66406C16.0841 5.66406 17.337 6.18304 18.2608 7.10683C19.1846 8.03062 19.7036 9.28355 19.7036 10.59C19.7036 11.8964 19.1846 13.1494 18.2608 14.0731C17.337 14.9969 16.0841 15.5159 14.7776 15.5159C13.4712 15.5159 12.2183 14.9969 11.2945 14.0731C10.3707 13.1494 9.85171 11.8964 9.85171 10.59C9.85171 9.28355 10.3707 8.03062 11.2945 7.10683C12.2183 6.18304 13.4712 5.66406 14.7776 5.66406ZM14.7776 17.9789C20.2208 17.9789 24.6295 20.1832 24.6295 22.9048V25.3678H4.92578V22.9048C4.92578 20.1832 9.33448 17.9789 14.7776 17.9789Z" fill="white"/>
</svg>
