<svg width="30" height="30" viewBox="0 0 30 30" fill="none" xmlns="http://www.w3.org/2000/svg">
<path fill-rule="evenodd" clip-rule="evenodd" d="M3.21094 14.7772C3.21094 13.879 3.56774 13.0176 4.20284 12.3825C4.83795 11.7474 5.69934 11.3906 6.59751 11.3906C7.49569 11.3906 8.35707 11.7474 8.99218 12.3825C9.62729 13.0176 9.98408 13.879 9.98408 14.7772C9.98408 15.6754 9.62729 16.5368 8.99218 17.1719C8.35707 17.807 7.49569 18.1638 6.59751 18.1638C5.69934 18.1638 4.83795 17.807 4.20284 17.1719C3.56774 16.5368 3.21094 15.6754 3.21094 14.7772ZM6.59751 13.2378C6.18925 13.2378 5.79771 13.4 5.50902 13.6887C5.22034 13.9774 5.05816 14.3689 5.05816 14.7772C5.05816 15.1855 5.22034 15.577 5.50902 15.8657C5.79771 16.1544 6.18925 16.3165 6.59751 16.3165C7.00577 16.3165 7.39731 16.1544 7.686 15.8657C7.97468 15.577 8.13686 15.1855 8.13686 14.7772C8.13686 14.3689 7.97468 13.9774 7.686 13.6887C7.39731 13.4 7.00577 13.2378 6.59751 13.2378ZM11.8313 14.7772C11.8313 13.879 12.1881 13.0176 12.8232 12.3825C13.4583 11.7474 14.3197 11.3906 15.2179 11.3906C16.1161 11.3906 16.9774 11.7474 17.6125 12.3825C18.2477 13.0176 18.6045 13.879 18.6045 14.7772C18.6045 15.6754 18.2477 16.5368 17.6125 17.1719C16.9774 17.807 16.1161 18.1638 15.2179 18.1638C14.3197 18.1638 13.4583 17.807 12.8232 17.1719C12.1881 16.5368 11.8313 15.6754 11.8313 14.7772ZM15.2179 13.2378C14.8096 13.2378 14.4181 13.4 14.1294 13.6887C13.8407 13.9774 13.6785 14.3689 13.6785 14.7772C13.6785 15.1855 13.8407 15.577 14.1294 15.8657C14.4181 16.1544 14.8096 16.3165 15.2179 16.3165C15.6261 16.3165 16.0177 16.1544 16.3064 15.8657C16.595 15.577 16.7572 15.1855 16.7572 14.7772C16.7572 14.3689 16.595 13.9774 16.3064 13.6887C16.0177 13.4 15.6261 13.2378 15.2179 13.2378ZM23.8382 11.3906C22.9401 11.3906 22.0787 11.7474 21.4436 12.3825C20.8085 13.0176 20.4517 13.879 20.4517 14.7772C20.4517 15.6754 20.8085 16.5368 21.4436 17.1719C22.0787 17.807 22.9401 18.1638 23.8382 18.1638C24.7364 18.1638 25.5978 17.807 26.2329 17.1719C26.868 16.5368 27.2248 15.6754 27.2248 14.7772C27.2248 13.879 26.868 13.0176 26.2329 12.3825C25.5978 11.7474 24.7364 11.3906 23.8382 11.3906ZM22.2989 14.7772C22.2989 14.575 22.3387 14.3749 22.4161 14.1881C22.4934 14.0014 22.6068 13.8317 22.7498 13.6887C22.8927 13.5458 23.0624 13.4324 23.2492 13.355C23.4359 13.2777 23.6361 13.2378 23.8382 13.2378C24.0404 13.2378 24.2406 13.2777 24.4273 13.355C24.6141 13.4324 24.7838 13.5458 24.9267 13.6887C25.0697 13.8317 25.1831 14.0014 25.2604 14.1881C25.3378 14.3749 25.3776 14.575 25.3776 14.7772C25.3776 15.1855 25.2154 15.577 24.9267 15.8657C24.638 16.1544 24.2465 16.3165 23.8382 16.3165C23.43 16.3165 23.0384 16.1544 22.7498 15.8657C22.4611 15.577 22.2989 15.1855 22.2989 14.7772Z" fill="white"/>
</svg>
