<svg width="30" height="31" viewBox="0 0 30 31" fill="none" xmlns="http://www.w3.org/2000/svg">
<path d="M14.9913 3.50977C16.0977 3.50977 17.1608 3.64927 18.1807 3.92828C19.2005 4.20728 20.1578 4.61136 21.0525 5.14052C21.9473 5.66967 22.7554 6.29503 23.477 7.0166C24.1986 7.73817 24.8239 8.54633 25.3531 9.44108C25.8822 10.3358 26.2863 11.2931 26.5653 12.3129C26.8443 13.3328 26.9886 14.4007 26.9983 15.5167C26.9983 16.6231 26.8588 17.6862 26.5797 18.7061C26.3007 19.7259 25.8967 20.6832 25.3675 21.5779C24.8384 22.4727 24.213 23.2808 23.4914 24.0024C22.7699 24.724 21.9617 25.3493 21.0669 25.8785C20.1722 26.4076 19.2149 26.8117 18.1951 27.0907C17.1753 27.3697 16.1073 27.514 14.9913 27.5237C13.8849 27.5237 12.8218 27.3841 11.802 27.1051C10.7822 26.8261 9.82487 26.4221 8.93012 25.8929C8.03537 25.3637 7.22721 24.7384 6.50564 24.0168C5.78407 23.2952 5.15871 22.4871 4.62956 21.5923C4.1004 20.6976 3.69633 19.7403 3.41732 18.7205C3.13831 17.7007 2.994 16.6327 2.98438 15.5167C2.98438 14.4103 3.12388 13.3472 3.40289 12.3274C3.68189 11.3075 4.08597 10.3503 4.61513 9.45551C5.14428 8.56076 5.76964 7.7526 6.49121 7.03103C7.21278 6.30946 8.02094 5.6841 8.91569 5.15495C9.81044 4.6258 10.7677 4.22172 11.7875 3.94271C12.8074 3.6637 13.8753 3.51939 14.9913 3.50977Z" fill="#F5F5F5"/>
<path d="M14.4851 8.42383C16.232 8.42383 17.9073 9.11778 19.1426 10.353C20.3778 11.5883 21.0718 13.2636 21.0718 15.0105C21.0718 16.642 20.4739 18.1417 19.491 19.2969L19.7646 19.5705H20.5651L25.6318 24.6372L24.1118 26.1572L19.0451 21.0905V20.29L18.7715 20.0164C17.5763 21.0366 16.0565 21.5971 14.4851 21.5972C12.7382 21.5972 11.0629 20.9032 9.82763 19.668C8.59239 18.4327 7.89844 16.7574 7.89844 15.0105C7.89844 13.2636 8.59239 11.5883 9.82763 10.353C11.0629 9.11778 12.7382 8.42383 14.4851 8.42383ZM14.4851 10.4505C11.9518 10.4505 9.9251 12.4772 9.9251 15.0105C9.9251 17.5438 11.9518 19.5705 14.4851 19.5705C17.0184 19.5705 19.0451 17.5438 19.0451 15.0105C19.0451 12.4772 17.0184 10.4505 14.4851 10.4505Z" fill="white"/>
</svg>
