<svg width="22" height="20" viewBox="0 0 22 20" fill="none" xmlns="http://www.w3.org/2000/svg">
<path d="M8.26282 2.5H3.94875C3.47223 2.5 3.08594 2.8731 3.08594 3.33333V7.5C3.08594 7.96025 3.47223 8.33333 3.94875 8.33333H8.26282C8.73936 8.33333 9.12564 7.96025 9.12564 7.5V3.33333C9.12564 2.8731 8.73936 2.5 8.26282 2.5Z" fill="#12AF2B" stroke="white" stroke-linejoin="round"/>
<path d="M8.26282 11.666H3.94875C3.47223 11.666 3.08594 12.0391 3.08594 12.4993V16.666C3.08594 17.1263 3.47223 17.4993 3.94875 17.4993H8.26282C8.73936 17.4993 9.12564 17.1263 9.12564 16.666V12.4993C9.12564 12.0391 8.73936 11.666 8.26282 11.666Z" fill="#12AF2B" stroke="white" stroke-linejoin="round"/>
<path d="M17.755 2.5H13.4409C12.9644 2.5 12.5781 2.8731 12.5781 3.33333V7.5C12.5781 7.96025 12.9644 8.33333 13.4409 8.33333H17.755C18.2315 8.33333 18.6178 7.96025 18.6178 7.5V3.33333C18.6178 2.8731 18.2315 2.5 17.755 2.5Z" fill="#12AF2B" stroke="white" stroke-linejoin="round"/>
<path d="M17.755 11.666H13.4409C12.9644 11.666 12.5781 12.0391 12.5781 12.4993V16.666C12.5781 17.1263 12.9644 17.4993 13.4409 17.4993H17.755C18.2315 17.4993 18.6178 17.1263 18.6178 16.666V12.4993C18.6178 12.0391 18.2315 11.666 17.755 11.666Z" fill="#12AF2B" stroke="white" stroke-linejoin="round"/>
</svg>
