<svg width="21" height="20" viewBox="0 0 21 20" fill="none" xmlns="http://www.w3.org/2000/svg">
<g clip-path="url(#clip0_2700_667)">
<path d="M19.5201 16.25H18.873V5.625C18.873 5.45924 18.8048 5.30027 18.6835 5.18306C18.5621 5.06585 18.3975 5 18.2259 5H14.9903V3.125C14.9903 2.95924 14.9222 2.80027 14.8008 2.68306C14.6795 2.56585 14.5149 2.5 14.3432 2.5H6.5779C6.40628 2.5 6.24168 2.56585 6.12033 2.68306C5.99897 2.80027 5.93079 2.95924 5.93079 3.125V7.5H2.69524C2.52361 7.5 2.35902 7.56585 2.23766 7.68306C2.11631 7.80027 2.04813 7.95924 2.04813 8.125V16.25H1.40102C1.22939 16.25 1.0648 16.3158 0.943441 16.4331C0.822084 16.5503 0.753906 16.7092 0.753906 16.875C0.753906 17.0408 0.822084 17.1997 0.943441 17.3169C1.0648 17.4342 1.22939 17.5 1.40102 17.5H19.5201C19.6917 17.5 19.8563 17.4342 19.9777 17.3169C20.0991 17.1997 20.1672 17.0408 20.1672 16.875C20.1672 16.7092 20.0991 16.5503 19.9777 16.4331C19.8563 16.3158 19.6917 16.25 19.5201 16.25ZM3.34235 8.75H6.5779C6.74953 8.75 6.91412 8.68415 7.03548 8.56694C7.15684 8.44973 7.22501 8.29076 7.22501 8.125V3.75H13.6961V5.625C13.6961 5.79076 13.7643 5.94973 13.8857 6.06694C14.007 6.18415 14.1716 6.25 14.3432 6.25H17.5788V16.25H12.4019V13.125C12.4019 12.9592 12.3337 12.8003 12.2124 12.6831C12.091 12.5658 11.9264 12.5 11.7548 12.5H9.16635C8.99472 12.5 8.83013 12.5658 8.70877 12.6831C8.58741 12.8003 8.51924 12.9592 8.51924 13.125V16.25H3.34235V8.75ZM11.1077 16.25H9.81346V13.75H11.1077V16.25ZM9.16635 5.625C9.16635 5.45924 9.23452 5.30027 9.35588 5.18306C9.47724 5.06585 9.64183 5 9.81346 5H11.1077C11.2793 5 11.4439 5.06585 11.5653 5.18306C11.6866 5.30027 11.7548 5.45924 11.7548 5.625C11.7548 5.79076 11.6866 5.94973 11.5653 6.06694C11.4439 6.18415 11.2793 6.25 11.1077 6.25H9.81346C9.64183 6.25 9.47724 6.18415 9.35588 6.06694C9.23452 5.94973 9.16635 5.79076 9.16635 5.625ZM9.16635 8.125C9.16635 7.95924 9.23452 7.80027 9.35588 7.68306C9.47724 7.56585 9.64183 7.5 9.81346 7.5H11.1077C11.2793 7.5 11.4439 7.56585 11.5653 7.68306C11.6866 7.80027 11.7548 7.95924 11.7548 8.125C11.7548 8.29076 11.6866 8.44973 11.5653 8.56694C11.4439 8.68415 11.2793 8.75 11.1077 8.75H9.81346C9.64183 8.75 9.47724 8.68415 9.35588 8.56694C9.23452 8.44973 9.16635 8.29076 9.16635 8.125ZM13.6961 8.125C13.6961 7.95924 13.7643 7.80027 13.8857 7.68306C14.007 7.56585 14.1716 7.5 14.3432 7.5H15.6375C15.8091 7.5 15.9737 7.56585 16.095 7.68306C16.2164 7.80027 16.2846 7.95924 16.2846 8.125C16.2846 8.29076 16.2164 8.44973 16.095 8.56694C15.9737 8.68415 15.8091 8.75 15.6375 8.75H14.3432C14.1716 8.75 14.007 8.68415 13.8857 8.56694C13.7643 8.44973 13.6961 8.29076 13.6961 8.125ZM7.22501 10.625C7.22501 10.7908 7.15684 10.9497 7.03548 11.0669C6.91412 11.1842 6.74953 11.25 6.5779 11.25H5.28368C5.11206 11.25 4.94746 11.1842 4.82611 11.0669C4.70475 10.9497 4.63657 10.7908 4.63657 10.625C4.63657 10.4592 4.70475 10.3003 4.82611 10.1831C4.94746 10.0658 5.11206 10 5.28368 10H6.5779C6.74953 10 6.91412 10.0658 7.03548 10.1831C7.15684 10.3003 7.22501 10.4592 7.22501 10.625ZM7.22501 13.125C7.22501 13.2908 7.15684 13.4497 7.03548 13.5669C6.91412 13.6842 6.74953 13.75 6.5779 13.75H5.28368C5.11206 13.75 4.94746 13.6842 4.82611 13.5669C4.70475 13.4497 4.63657 13.2908 4.63657 13.125C4.63657 12.9592 4.70475 12.8003 4.82611 12.6831C4.94746 12.5658 5.11206 12.5 5.28368 12.5H6.5779C6.74953 12.5 6.91412 12.5658 7.03548 12.6831C7.15684 12.8003 7.22501 12.9592 7.22501 13.125ZM9.16635 10.625C9.16635 10.4592 9.23452 10.3003 9.35588 10.1831C9.47724 10.0658 9.64183 10 9.81346 10H11.1077C11.2793 10 11.4439 10.0658 11.5653 10.1831C11.6866 10.3003 11.7548 10.4592 11.7548 10.625C11.7548 10.7908 11.6866 10.9497 11.5653 11.0669C11.4439 11.1842 11.2793 11.25 11.1077 11.25H9.81346C9.64183 11.25 9.47724 11.1842 9.35588 11.0669C9.23452 10.9497 9.16635 10.7908 9.16635 10.625ZM13.6961 10.625C13.6961 10.4592 13.7643 10.3003 13.8857 10.1831C14.007 10.0658 14.1716 10 14.3432 10H15.6375C15.8091 10 15.9737 10.0658 16.095 10.1831C16.2164 10.3003 16.2846 10.4592 16.2846 10.625C16.2846 10.7908 16.2164 10.9497 16.095 11.0669C15.9737 11.1842 15.8091 11.25 15.6375 11.25H14.3432C14.1716 11.25 14.007 11.1842 13.8857 11.0669C13.7643 10.9497 13.6961 10.7908 13.6961 10.625ZM13.6961 13.125C13.6961 12.9592 13.7643 12.8003 13.8857 12.6831C14.007 12.5658 14.1716 12.5 14.3432 12.5H15.6375C15.8091 12.5 15.9737 12.5658 16.095 12.6831C16.2164 12.8003 16.2846 12.9592 16.2846 13.125C16.2846 13.2908 16.2164 13.4497 16.095 13.5669C15.9737 13.6842 15.8091 13.75 15.6375 13.75H14.3432C14.1716 13.75 14.007 13.6842 13.8857 13.5669C13.7643 13.4497 13.6961 13.2908 13.6961 13.125Z" fill="white"/>
</g>
<defs>
<clipPath id="clip0_2700_667">
<rect width="20.7075" height="20" fill="white" transform="translate(0.105469)"/>
</clipPath>
</defs>
</svg>
