<svg width="40" height="40" viewBox="0 0 40 40" fill="none" xmlns="http://www.w3.org/2000/svg">
<rect width="40" height="40" fill="#CAC6C6" fill-opacity="0.1"/>
<path d="M26.7688 4.08939C27.2375 4.55821 27.5008 5.19398 27.5008 5.85689C27.5008 6.5198 27.2375 7.15557 26.7688 7.62439L14.3938 19.9994L26.7688 32.3744C27.2242 32.8459 27.4762 33.4774 27.4705 34.1329C27.4648 34.7884 27.2019 35.4154 26.7384 35.8789C26.2749 36.3425 25.6478 36.6054 24.9923 36.6111C24.3369 36.6168 23.7053 36.3648 23.2338 35.9094L9.09134 21.7669C8.62266 21.2981 8.35938 20.6623 8.35938 19.9994C8.35937 19.3365 8.62266 18.7007 9.09134 18.2319L23.2338 4.08939C23.7027 3.62071 24.3384 3.35742 25.0013 3.35742C25.6643 3.35742 26.3 3.62071 26.7688 4.08939Z" fill="#B4DFA1"/>
</svg>
