<svg width="40" height="40" viewBox="0 0 40 40" fill="none" xmlns="http://www.w3.org/2000/svg">
<path d="M26.7547 2.97852L28.3647 3.41352C30.3336 3.94631 32.1284 4.98601 33.5702 6.42891C35.0119 7.87181 36.0501 9.66749 36.5813 11.6368L37.0147 13.2452L33.798 14.1135L33.363 12.5052C32.9834 11.0985 32.2416 9.81587 31.2117 8.7853C30.1817 7.75474 28.8995 7.01223 27.493 6.63185L25.8847 6.19518L26.7547 2.97852ZM1.66801 3.33352H15.968L18.4463 14.4835L15.3463 17.5835C17.1682 20.4209 19.5802 22.8323 22.418 24.6535L25.518 21.5552L36.668 24.0335V38.3335H35.0013C28.5854 38.3435 22.3041 36.4933 16.918 33.0069C12.9468 30.4367 9.56482 27.0547 6.99467 23.0835C3.50834 17.6974 1.65812 11.4161 1.66801 5.00018V3.33352ZM5.04634 6.66685C5.32673 11.8668 6.9638 16.9027 9.79467 21.2735C12.1086 24.8484 15.1531 27.8929 18.728 30.2069C23.0988 33.0379 28.1347 34.6749 33.3347 34.9552V26.7069L26.5797 25.2069L22.9563 28.8319L21.8513 28.2035C17.6559 25.8191 14.1824 22.3456 11.798 18.1502L11.1697 17.0452L14.7947 13.4219L13.2947 6.66685H5.04634ZM25.2313 8.60852L26.8413 9.04352C27.8258 9.30992 28.7232 9.82976 29.4441 10.5512C30.1649 11.2727 30.6841 12.1705 30.9497 13.1552L31.383 14.7635L28.1663 15.6318L27.7313 14.0235C27.6174 13.6015 27.3947 13.2167 27.0856 12.9076C26.7765 12.5985 26.3917 12.3758 25.9697 12.2618L24.3613 11.8268L25.2313 8.60852Z" fill="#B4DFA1"/>
</svg>
