<svg width="25" height="25" viewBox="0 0 25 25" fill="none" xmlns="http://www.w3.org/2000/svg">
<path d="M22.9154 12.5007C22.9148 9.73815 21.8172 7.08895 19.8638 5.13557C17.9104 3.18218 15.2612 2.08454 12.4987 2.08398V4.16732C14.1467 4.16769 15.7576 4.65652 17.128 5.57204C18.4983 6.48757 19.5665 7.7887 20.1977 9.31107C20.6165 10.3223 20.8321 11.4061 20.832 12.5007H22.9154ZM2.08203 10.4173V5.20898C2.08203 4.93272 2.19178 4.66777 2.38713 4.47242C2.58248 4.27706 2.84743 4.16732 3.1237 4.16732H8.33203C8.6083 4.16732 8.87325 4.27706 9.0686 4.47242C9.26395 4.66777 9.3737 4.93272 9.3737 5.20898V9.37565C9.3737 9.65192 9.26395 9.91687 9.0686 10.1122C8.87325 10.3076 8.6083 10.4173 8.33203 10.4173H6.2487C6.2487 12.6275 7.12667 14.7471 8.68948 16.3099C10.2523 17.8727 12.3719 18.7507 14.582 18.7507V16.6673C14.582 16.3911 14.6918 16.1261 14.8871 15.9307C15.0825 15.7354 15.3474 15.6257 15.6237 15.6257H19.7904C20.0666 15.6257 20.3316 15.7354 20.5269 15.9307C20.7223 16.1261 20.832 16.3911 20.832 16.6673V21.8757C20.832 22.1519 20.7223 22.4169 20.5269 22.6122C20.3316 22.8076 20.0666 22.9173 19.7904 22.9173H14.582C7.67891 22.9173 2.08203 17.3204 2.08203 10.4173Z" fill="white" fill-opacity="0.9"/>
<path d="M18.274 10.1083C18.5884 10.8665 18.7502 11.6792 18.75 12.5H16.875C16.8751 11.9254 16.7621 11.3565 16.5423 10.8256C16.3224 10.2947 16.0002 9.81239 15.5939 9.4061C15.1876 8.99982 14.7053 8.67756 14.1744 8.45775C13.6435 8.23793 13.0746 8.12486 12.5 8.125V6.25C13.7361 6.25007 14.9444 6.61666 15.9722 7.30344C16.9999 7.99021 17.8009 8.96632 18.274 10.1083Z" fill="white" fill-opacity="0.9"/>
</svg>
