<svg width="25" height="25" viewBox="0 0 25 25" fill="none" xmlns="http://www.w3.org/2000/svg">
<g clip-path="url(#clip0_805_22)">
<path d="M12.5017 24.1069C18.9121 24.1069 24.1088 18.9102 24.1088 12.4997C24.1088 6.08927 18.9121 0.892578 12.5017 0.892578C6.09123 0.892578 0.894531 6.08927 0.894531 12.4997C0.894531 18.9102 6.09123 24.1069 12.5017 24.1069Z" stroke="#FFFDFD" stroke-linecap="round" stroke-linejoin="round"/>
<path d="M9.82031 9.82115C9.82031 9.29138 9.97741 8.77351 10.2717 8.33302C10.5661 7.89253 10.9844 7.54921 11.4738 7.34647C11.9633 7.14374 12.5019 7.09069 13.0214 7.19405C13.541 7.2974 14.0183 7.55251 14.3929 7.92711C14.7675 8.30172 15.0226 8.779 15.126 9.29859C15.2293 9.81818 15.1763 10.3568 14.9736 10.8462C14.7708 11.3356 14.4275 11.754 13.987 12.0483C13.5465 12.3426 13.0287 12.4997 12.4989 12.4997V14.2854" stroke="#FFFDFD" stroke-linecap="round" stroke-linejoin="round"/>
<path d="M12.4994 16.9648C12.2346 16.9648 11.9756 17.0434 11.7554 17.1906C11.5351 17.3377 11.3635 17.5469 11.2621 17.7916C11.1607 18.0363 11.1342 18.3056 11.1859 18.5654C11.2376 18.8252 11.3651 19.0638 11.5524 19.2511C11.7397 19.4384 11.9784 19.566 12.2382 19.6177C12.498 19.6694 12.7672 19.6428 13.012 19.5415C13.2567 19.4401 13.4659 19.2684 13.613 19.0482C13.7602 18.828 13.8387 18.569 13.8387 18.3041C13.8341 17.9504 13.6915 17.6124 13.4413 17.3622C13.1912 17.1121 12.8532 16.9695 12.4994 16.9648Z" fill="#FFFDFD"/>
</g>
<defs>
<clipPath id="clip0_805_22">
<rect width="25" height="25" fill="white"/>
</clipPath>
</defs>
</svg>
