<svg width="25" height="23" viewBox="0 0 25 23" fill="none" xmlns="http://www.w3.org/2000/svg">
<path d="M7.8125 2.55799C7.3981 2.55799 7.00067 2.69258 6.70765 2.93214C6.41462 3.17171 6.25 3.49662 6.25 3.83542C6.25 4.17422 6.41462 4.49913 6.70765 4.7387C7.00067 4.97826 7.3981 5.11285 7.8125 5.11285C8.2269 5.11285 8.62433 4.97826 8.91735 4.7387C9.21038 4.49913 9.375 4.17422 9.375 3.83542C9.375 3.49662 9.21038 3.17171 8.91735 2.93214C8.62433 2.69258 8.2269 2.55799 7.8125 2.55799ZM3.39062 2.55799C3.71344 1.81001 4.31209 1.16231 5.10406 0.70417C5.89603 0.246028 6.84232 0 7.8125 0C8.78268 0 9.72897 0.246028 10.5209 0.70417C11.3129 1.16231 11.9116 1.81001 12.2344 2.55799H23.4375C23.8519 2.55799 24.2493 2.69258 24.5424 2.93214C24.8354 3.17171 25 3.49662 25 3.83542C25 4.17422 24.8354 4.49913 24.5424 4.7387C24.2493 4.97826 23.8519 5.11285 23.4375 5.11285H12.2344C11.9116 5.86083 11.3129 6.50853 10.5209 6.96667C9.72897 7.42481 8.78268 7.67084 7.8125 7.67084C6.84232 7.67084 5.89603 7.42481 5.10406 6.96667C4.31209 6.50853 3.71344 5.86083 3.39062 5.11285H1.5625C1.1481 5.11285 0.750672 4.97826 0.457646 4.7387C0.16462 4.49913 0 4.17422 0 3.83542C0 3.49662 0.16462 3.17171 0.457646 2.93214C0.750672 2.69258 1.1481 2.55799 1.5625 2.55799H3.39062ZM17.1875 10.2226C16.7731 10.2226 16.3757 10.3572 16.0826 10.5967C15.7896 10.8363 15.625 11.1612 15.625 11.5C15.625 11.8388 15.7896 12.1637 16.0826 12.4033C16.3757 12.6428 16.7731 12.7774 17.1875 12.7774C17.6019 12.7774 17.9993 12.6428 18.2924 12.4033C18.5854 12.1637 18.75 11.8388 18.75 11.5C18.75 11.1612 18.5854 10.8363 18.2924 10.5967C17.9993 10.3572 17.6019 10.2226 17.1875 10.2226ZM12.7656 10.2226C13.0884 9.47459 13.6871 8.82689 14.4791 8.36875C15.271 7.91061 16.2173 7.66458 17.1875 7.66458C18.1577 7.66458 19.104 7.91061 19.8959 8.36875C20.6879 8.82689 21.2866 9.47459 21.6094 10.2226H23.4375C23.8519 10.2226 24.2493 10.3572 24.5424 10.5967C24.8354 10.8363 25 11.1612 25 11.5C25 11.8388 24.8354 12.1637 24.5424 12.4033C24.2493 12.6428 23.8519 12.7774 23.4375 12.7774H21.6094C21.2866 13.5254 20.6879 14.1731 19.8959 14.6312C19.104 15.0894 18.1577 15.3354 17.1875 15.3354C16.2173 15.3354 15.271 15.0894 14.4791 14.6312C13.6871 14.1731 13.0884 13.5254 12.7656 12.7774H1.5625C1.1481 12.7774 0.750672 12.6428 0.457646 12.4033C0.16462 12.1637 0 11.8388 0 11.5C0 11.1612 0.16462 10.8363 0.457646 10.5967C0.750672 10.3572 1.1481 10.2226 1.5625 10.2226H12.7656ZM7.8125 17.8871C7.3981 17.8871 7.00067 18.0217 6.70765 18.2613C6.41462 18.5009 6.25 18.8258 6.25 19.1646C6.25 19.5034 6.41462 19.8283 6.70765 20.0679C7.00067 20.3074 7.3981 20.442 7.8125 20.442C8.2269 20.442 8.62433 20.3074 8.91735 20.0679C9.21038 19.8283 9.375 19.5034 9.375 19.1646C9.375 18.8258 9.21038 18.5009 8.91735 18.2613C8.62433 18.0217 8.2269 17.8871 7.8125 17.8871ZM3.39062 17.8871C3.71344 17.1392 4.31209 16.4915 5.10406 16.0333C5.89603 15.5752 6.84232 15.3292 7.8125 15.3292C8.78268 15.3292 9.72897 15.5752 10.5209 16.0333C11.3129 16.4915 11.9116 17.1392 12.2344 17.8871H23.4375C23.8519 17.8871 24.2493 18.0217 24.5424 18.2613C24.8354 18.5009 25 18.8258 25 19.1646C25 19.5034 24.8354 19.8283 24.5424 20.0679C24.2493 20.3074 23.8519 20.442 23.4375 20.442H12.2344C11.9116 21.19 11.3129 21.8377 10.5209 22.2958C9.72897 22.754 8.78268 23 7.8125 23C6.84232 23 5.89603 22.754 5.10406 22.2958C4.31209 21.8377 3.71344 21.19 3.39062 20.442H1.5625C1.1481 20.442 0.750672 20.3074 0.457646 20.0679C0.16462 19.8283 0 19.5034 0 19.1646C0 18.8258 0.16462 18.5009 0.457646 18.2613C0.750672 18.0217 1.1481 17.8871 1.5625 17.8871H3.39062Z" fill="#03F61C"/>
</svg>
