<svg width="21" height="20" viewBox="0 0 21 20" fill="none" xmlns="http://www.w3.org/2000/svg">
<path d="M10.3477 6.66601L15.5245 4.16602L10.3477 1.66602V9.99935" stroke="white" stroke-width="2" stroke-linecap="round" stroke-linejoin="round"/>
<path d="M6.89773 9.99023L2.15225 12.6069C2.01946 12.6796 1.90901 12.785 1.83217 12.9123C1.75533 13.0397 1.71484 13.1845 1.71484 13.3319C1.71484 13.4793 1.75533 13.6241 1.83217 13.7515C1.90901 13.8788 2.01946 13.9842 2.15225 14.0569L9.48617 18.1069C9.7485 18.2532 10.0461 18.3302 10.349 18.3302C10.6519 18.3302 10.9495 18.2532 11.2118 18.1069L18.5457 14.0569C18.6785 13.9842 18.789 13.8788 18.8658 13.7515C18.9426 13.6241 18.9831 13.4793 18.9831 13.3319C18.9831 13.1845 18.9426 13.0397 18.8658 12.9123C18.789 12.785 18.6785 12.6796 18.5457 12.6069L13.8002 9.99857M5.59488 10.7069L15.1031 15.9569M15.1031 10.7069L5.6035 15.9569" stroke="white" stroke-width="2" stroke-linecap="round" stroke-linejoin="round"/>
</svg>
