<svg width="35" height="35" viewBox="0 0 35 35" fill="none" xmlns="http://www.w3.org/2000/svg">
<path d="M33.7363 1.53125L22.2259 33.4064C22.1482 33.5759 22.0234 33.7196 21.8665 33.8203C21.7095 33.9211 21.5269 33.9746 21.3404 33.9746C21.1539 33.9746 20.9714 33.9211 20.8144 33.8203C20.6575 33.7196 20.5327 33.5759 20.455 33.4064L14.2571 21.0105L1.86118 14.8126C1.69164 14.7349 1.54797 14.6101 1.44724 14.4532C1.34651 14.2962 1.29297 14.1136 1.29297 13.9271C1.29297 13.7406 1.34651 13.5581 1.44724 13.4011C1.54797 13.2442 1.69164 13.1194 1.86118 13.0417L33.7363 1.53125Z" stroke="#03F61C" stroke-width="2" stroke-linecap="round" stroke-linejoin="round"/>
</svg>
