<svg width="37" height="35" viewBox="0 0 37 35" fill="none" xmlns="http://www.w3.org/2000/svg">
<g clip-path="url(#clip0_186_7)">
<path d="M10.8519 17.3196L28.5341 11.2317C28.6314 11.1984 28.7266 11.1881 28.8101 11.2018C28.8936 11.2154 28.9623 11.2526 29.0092 11.3094C29.0562 11.3662 29.0796 11.4407 29.0773 11.5253C29.0749 11.6098 29.0468 11.7014 28.9958 11.7907L19.6773 28.0045C19.6174 28.1082 19.5293 28.2038 19.4251 28.2785C19.3209 28.3531 19.2056 28.403 19.095 28.4215C18.9844 28.4399 18.8838 28.426 18.807 28.3816C18.7301 28.3371 18.6808 28.2644 18.6656 28.1732L17.4925 21.0175C17.4743 20.9067 17.4058 20.8237 17.3004 20.7849L10.4941 18.282C10.4072 18.25 10.3449 18.1878 10.3157 18.1038C10.2864 18.0199 10.2918 17.9182 10.3309 17.8129C10.3701 17.7076 10.4412 17.6037 10.5344 17.5154C10.6277 17.4271 10.7386 17.3587 10.8519 17.3196Z" stroke="black" stroke-width="1.5" stroke-linecap="round" stroke-linejoin="round"/>
</g>
<defs>
<clipPath id="clip0_186_7">
<rect width="20" height="30" fill="white" transform="translate(24) rotate(50.4442)"/>
</clipPath>
</defs>
</svg>
