<svg width="40" height="40" viewBox="0 0 40 40" fill="none" xmlns="http://www.w3.org/2000/svg">
<g clip-path="url(#clip0_186_15)">
<path d="M33.3346 29.1654C33.9767 29.1657 34.594 29.413 35.0586 29.856C35.5233 30.2991 35.7997 30.9039 35.8305 31.5452C35.8614 32.1865 35.6443 32.8151 35.2243 33.3007C34.8044 33.7863 34.2137 34.0917 33.5746 34.1537L33.3346 34.1654H6.66797C6.02594 34.165 5.40864 33.9177 4.94399 33.4747C4.47934 33.0316 4.20295 32.4268 4.17209 31.7855C4.14124 31.1442 4.35829 30.5156 4.77826 30.03C5.19823 29.5444 5.78894 29.239 6.42797 29.177L6.66797 29.1654H33.3346ZM33.3346 17.4987C33.9977 17.4987 34.6336 17.7621 35.1024 18.2309C35.5712 18.6998 35.8346 19.3357 35.8346 19.9987C35.8346 20.6617 35.5712 21.2976 35.1024 21.7665C34.6336 22.2353 33.9977 22.4987 33.3346 22.4987H6.66797C6.00493 22.4987 5.36904 22.2353 4.9002 21.7665C4.43136 21.2976 4.16797 20.6617 4.16797 19.9987C4.16797 19.3357 4.43136 18.6998 4.9002 18.2309C5.36904 17.7621 6.00493 17.4987 6.66797 17.4987H33.3346ZM33.3346 5.83203C33.9977 5.83203 34.6336 6.09542 35.1024 6.56426C35.5712 7.03311 35.8346 7.66899 35.8346 8.33203C35.8346 8.99507 35.5712 9.63096 35.1024 10.0998C34.6336 10.5686 33.9977 10.832 33.3346 10.832H6.66797C6.00493 10.832 5.36904 10.5686 4.9002 10.0998C4.43136 9.63096 4.16797 8.99507 4.16797 8.33203C4.16797 7.66899 4.43136 7.03311 4.9002 6.56426C5.36904 6.09542 6.00493 5.83203 6.66797 5.83203H33.3346Z" fill="white"/>
</g>
<defs>
<clipPath id="clip0_186_15">
<rect width="40" height="40" fill="white"/>
</clipPath>
</defs>
</svg>
