<svg width="40" height="40" viewBox="0 0 40 40" fill="none" xmlns="http://www.w3.org/2000/svg">
<path d="M17.5 7.5C17.5 6.11929 18.6193 5 20 5C21.3807 5 22.5 6.11929 22.5 7.5C22.5 8.88071 21.3807 10 20 10C18.6193 10 17.5 8.88071 17.5 7.5ZM17.5 20C17.5 18.6193 18.6193 17.5 20 17.5C21.3807 17.5 22.5 18.6193 22.5 20C22.5 21.3807 21.3807 22.5 20 22.5C18.6193 22.5 17.5 21.3807 17.5 20ZM17.5 32.5C17.5 31.1193 18.6193 30 20 30C21.3807 30 22.5 31.1193 22.5 32.5C22.5 33.8807 21.3807 35 20 35C18.6193 35 17.5 33.8807 17.5 32.5Z" fill="black"/>
</svg>
