<svg width="45" height="40" viewBox="0 0 45 40" fill="none" xmlns="http://www.w3.org/2000/svg">
<path d="M32.9154 12.9167H25.4154C24.9733 12.9167 24.5494 12.7411 24.2369 12.4285C23.9243 12.116 23.7487 11.692 23.7487 11.25V3.75M32.9154 12.9167V34.5833C32.9154 35.0254 32.7398 35.4493 32.4272 35.7618C32.1147 36.0744 31.6907 36.25 31.2487 36.25H8.7487C8.30667 36.25 7.88275 36.0744 7.57019 35.7618C7.25763 35.4493 7.08203 35.0254 7.08203 34.5833V5.41667C7.08203 4.97464 7.25763 4.55072 7.57019 4.23816C7.88275 3.92559 8.30667 3.75 8.7487 3.75H23.7487M32.9154 12.9167L23.7487 3.75M11.632 12.5H18.882M11.632 30.85H16.3237M11.632 17.0833H26.107M11.632 21.675H26.107M11.632 26.2667H26.107" stroke="black" stroke-linecap="round" stroke-linejoin="round"/>
<path d="M42.9797 12.5108L39.4891 9.01939C39.344 8.87423 39.1717 8.75908 38.9821 8.68052C38.7925 8.60196 38.5892 8.56152 38.384 8.56152C38.1787 8.56152 37.9755 8.60196 37.7859 8.68052C37.5963 8.75908 37.424 8.87423 37.2789 9.01939L27.6453 18.6538C27.4997 18.7984 27.3842 18.9706 27.3057 19.1602C27.2271 19.3498 27.1869 19.5532 27.1875 19.7585V23.2499C27.1875 23.6643 27.3521 24.0617 27.6452 24.3547C27.9382 24.6477 28.3356 24.8124 28.75 24.8124H32.2414C32.4467 24.8129 32.65 24.7727 32.8396 24.6942C33.0293 24.6156 33.2014 24.5001 33.3461 24.3545L42.9797 14.7202C43.2726 14.4272 43.4372 14.0298 43.4372 13.6155C43.4372 13.2012 43.2726 12.8038 42.9797 12.5108ZM32.2656 21.0624L37.8125 15.5155L38.6719 16.3749L33.125 21.9217L32.2656 21.0624ZM30.9375 19.7342L30.0781 18.8749L35.625 13.328L36.4844 14.1874L30.9375 19.7342ZM29.0625 20.5155L30.2742 21.7272L31.4844 22.9374H29.0625V20.5155ZM40 15.0467L36.9531 11.9999L38.3859 10.567L41.4328 13.6139L40 15.0467Z" fill="black"/>
</svg>
