<svg width="22" height="20" viewBox="0 0 22 20" fill="none" xmlns="http://www.w3.org/2000/svg">
<path fill-rule="evenodd" clip-rule="evenodd" d="M6.18189 2.15067H15.6955C15.7236 2.15067 15.7458 2.1721 15.7458 2.19924V7.81495C15.7458 7.82784 15.7405 7.84019 15.7311 7.8493C15.7217 7.85841 15.7089 7.86353 15.6955 7.86353H6.18189C6.16855 7.86353 6.15576 7.85841 6.14633 7.8493C6.1369 7.84019 6.1316 7.82784 6.1316 7.81495V2.19924C6.1316 2.17067 6.15379 2.15067 6.18189 2.15067ZM15.6955 0.0078125H6.18189C4.92908 0.0078125 3.91293 0.986384 3.91293 2.19924V7.81495C3.91293 9.02495 4.92908 10.0064 6.18189 10.0064H9.82938V11.4578H3.84194C3.11306 11.4586 2.41428 11.7387 1.89902 12.2366C1.38376 12.7345 1.09414 13.4095 1.09375 14.1135V18.9235C1.09375 19.2077 1.21063 19.4802 1.41867 19.6811C1.62671 19.8821 1.90887 19.995 2.20308 19.995C2.4973 19.995 2.77946 19.8821 2.9875 19.6811C3.19554 19.4802 3.31242 19.2077 3.31242 18.9235V15.3264H18.565V18.9235C18.565 19.2077 18.6819 19.4802 18.8899 19.6811C19.098 19.8821 19.3801 19.995 19.6743 19.995C19.9685 19.995 20.2507 19.8821 20.4588 19.6811C20.6668 19.4802 20.7837 19.2077 20.7837 18.9235V14.1121C20.7829 13.4084 20.4931 12.7337 19.9779 12.2361C19.4627 11.7385 18.7641 11.4586 18.0355 11.4578H12.0451V10.0078H15.6955C16.9483 10.0078 17.9645 9.02638 17.9645 7.81638V2.19924C17.9645 0.987813 16.9483 0.0078125 15.6955 0.0078125Z" fill="white"/>
</svg>
