<svg width="23" height="21" viewBox="0 0 23 21" fill="none" xmlns="http://www.w3.org/2000/svg">
<path d="M8.54286 0C10.8086 0 12.9815 0.821783 14.5836 2.28457C16.1857 3.74735 17.0857 5.73131 17.0857 7.8C17.0857 9.732 16.3103 11.508 15.0354 12.876L15.3903 13.2H16.4286L23 19.2L21.0286 21L14.4571 15V14.052L14.1023 13.728C12.5521 14.9361 10.5809 15.5999 8.54286 15.6C6.27715 15.6 4.10424 14.7782 2.50214 13.3154C0.900048 11.8526 0 9.86869 0 7.8C0 5.73131 0.900048 3.74735 2.50214 2.28457C4.10424 0.821783 6.27715 0 8.54286 0ZM8.54286 2.4C5.25714 2.4 2.62857 4.8 2.62857 7.8C2.62857 10.8 5.25714 13.2 8.54286 13.2C11.8286 13.2 14.4571 10.8 14.4571 7.8C14.4571 4.8 11.8286 2.4 8.54286 2.4Z" fill="#03F61C"/>
</svg>
