<svg width="50" height="50" viewBox="0 0 50 50" fill="none" xmlns="http://www.w3.org/2000/svg">
<rect x="0.5" y="0.5" width="49" height="49" rx="24.5" fill="#253452"/>
<rect x="0.5" y="0.5" width="49" height="49" rx="24.5" stroke="#253452"/>
<rect x="0.5" y="0.5" width="49" height="49" rx="24.5" stroke="black" stroke-opacity="0.2"/>
<path d="M25 4.6875C26.8717 4.6875 28.6702 4.9235 30.3955 5.39551C32.1208 5.86751 33.7402 6.55111 35.2539 7.44629C36.7676 8.34147 38.1348 9.39941 39.3555 10.6201C40.5762 11.8408 41.6341 13.208 42.5293 14.7217C43.4245 16.2354 44.1081 17.8548 44.5801 19.5801C45.0521 21.3053 45.2962 23.112 45.3125 25C45.3125 26.8717 45.0765 28.6702 44.6045 30.3955C44.1325 32.1208 43.4489 33.7402 42.5537 35.2539C41.6585 36.7676 40.6006 38.1348 39.3799 39.3555C38.1592 40.5762 36.792 41.6341 35.2783 42.5293C33.7646 43.4245 32.1452 44.1081 30.4199 44.5801C28.6947 45.0521 26.888 45.2962 25 45.3125C23.1283 45.3125 21.3298 45.0765 19.6045 44.6045C17.8792 44.1325 16.2598 43.4489 14.7461 42.5537C13.2324 41.6585 11.8652 40.6006 10.6445 39.3799C9.42383 38.1592 8.36589 36.792 7.4707 35.2783C6.57552 33.7646 5.89193 32.1452 5.41992 30.4199C4.94792 28.6947 4.70378 26.888 4.6875 25C4.6875 23.1283 4.9235 21.3298 5.39551 19.6045C5.86751 17.8792 6.55111 16.2598 7.44629 14.7461C8.34147 13.2324 9.39941 11.8652 10.6201 10.6445C11.8408 9.42383 13.208 8.36589 14.7217 7.4707C16.2354 6.57552 17.8548 5.89193 19.5801 5.41992C21.3053 4.94792 23.112 4.70378 25 4.6875Z" fill="#253452"/>
<path d="M24.1429 13C27.0981 13 29.9324 14.174 32.022 16.2637C34.1117 18.3534 35.2857 21.1876 35.2857 24.1429C35.2857 26.9029 34.2743 29.44 32.6114 31.3943L33.0743 31.8571H34.4286L43 40.4286L40.4286 43L31.8571 34.4286V33.0743L31.3943 32.6114C29.3724 34.3373 26.8012 35.2856 24.1429 35.2857C21.1876 35.2857 18.3534 34.1117 16.2637 32.022C14.174 29.9324 13 27.0981 13 24.1429C13 21.1876 14.174 18.3534 16.2637 16.2637C18.3534 14.174 21.1876 13 24.1429 13ZM24.1429 16.4286C19.8571 16.4286 16.4286 19.8571 16.4286 24.1429C16.4286 28.4286 19.8571 31.8571 24.1429 31.8571C28.4286 31.8571 31.8571 28.4286 31.8571 24.1429C31.8571 19.8571 28.4286 16.4286 24.1429 16.4286Z" fill="#B4DFA1"/>
</svg>
