<svg width="21" height="20" viewBox="0 0 21 20" fill="none" xmlns="http://www.w3.org/2000/svg">
<path d="M6.44458 9.375C6.63656 9.375 6.82422 9.42998 6.98385 9.533C7.14347 9.63601 7.26789 9.78243 7.34136 9.95373C7.41482 10.125 7.43404 10.3135 7.39659 10.4954C7.35914 10.6773 7.26669 10.8443 7.13094 10.9754C6.99519 11.1065 6.82223 11.1958 6.63394 11.232C6.44565 11.2682 6.25048 11.2496 6.07312 11.1786C5.89575 11.1077 5.74415 10.9875 5.6375 10.8333C5.53084 10.6792 5.47391 10.4979 5.47391 10.3125C5.47391 10.0639 5.57618 9.8254 5.75821 9.64959C5.94025 9.47377 6.18714 9.375 6.44458 9.375ZM6.44458 8.125C5.99662 8.125 5.55873 8.25329 5.18627 8.49366C4.81381 8.73403 4.52352 9.07567 4.35209 9.47538C4.18067 9.87509 4.13582 10.3149 4.22321 10.7393C4.3106 11.1636 4.52631 11.5534 4.84306 11.8593C5.15981 12.1652 5.56337 12.3736 6.00272 12.458C6.44206 12.5424 6.89746 12.4991 7.31131 12.3335C7.72517 12.1679 8.07889 11.8875 8.32776 11.5278C8.57663 11.1681 8.70946 10.7451 8.70946 10.3125C8.70946 9.73234 8.47084 9.17594 8.04609 8.7657C7.62134 8.35547 7.04526 8.125 6.44458 8.125Z" fill="white"/>
<path d="M16.4734 8.75029H11.2965C10.9533 8.75029 10.6241 8.88198 10.3814 9.1164C10.1386 9.35082 10.0023 9.66877 10.0023 10.0003V13.7503H2.88407V6.62529L10.6494 2.58779L18.7577 6.80029L19.366 5.70029L10.9535 1.32529C10.8599 1.27714 10.7555 1.25195 10.6494 1.25195C10.5433 1.25195 10.4389 1.27714 10.3453 1.32529L1.93281 5.70029C1.82948 5.75343 1.74301 5.83264 1.68262 5.9295C1.62222 6.02636 1.59016 6.13722 1.58984 6.25029V18.7503H2.88407V15.0003H18.4147V18.7503H19.7089V11.8753C19.7089 11.0465 19.3681 10.2516 18.7613 9.66558C18.1545 9.07953 17.3315 8.75029 16.4734 8.75029ZM11.2965 13.7503V10.0003H16.4734C16.9883 10.0003 17.4821 10.1978 17.8461 10.5495C18.2102 10.9011 18.4147 11.378 18.4147 11.8753V13.7503H11.2965Z" fill="white"/>
</svg>
