<svg width="21" height="20" viewBox="0 0 21 20" fill="none" xmlns="http://www.w3.org/2000/svg">
<path d="M7.16803 3.81487L9.71506 5.94653C9.78521 6.00521 9.84147 6.07777 9.88003 6.1593C9.91859 6.24082 9.93854 6.3294 9.93853 6.41903V12.9165H7.7815C7.60987 12.9165 7.44528 12.9824 7.32392 13.0996C7.20256 13.2168 7.13438 13.3758 7.13438 13.5415V16.2499H4.33024C4.27303 16.2499 4.21816 16.2279 4.17771 16.1888C4.13726 16.1498 4.11453 16.0968 4.11453 16.0415V6.41903C4.11453 6.3294 4.13448 6.24082 4.17304 6.1593C4.21159 6.07777 4.26785 6.00521 4.338 5.94653L6.88417 3.81487C6.92342 3.78192 6.97367 3.76377 7.02567 3.76377C7.07767 3.76377 7.12879 3.78192 7.16803 3.81487ZM9.93767 14.1665V16.2499H8.42861V14.1674L9.93767 14.1665ZM11.2319 14.1665H12.7418V16.2499H11.2319V14.1665ZM14.0369 16.2507V13.5424C14.0369 13.3766 13.9687 13.2176 13.8474 13.1004C13.726 12.9832 13.5614 12.9174 13.3898 12.9174H11.2328V6.41903C11.2327 6.3294 11.2527 6.24082 11.2913 6.1593C11.3298 6.07777 11.3861 6.00521 11.4562 5.94653L14.0033 3.81487C14.0425 3.78192 14.0928 3.76377 14.1448 3.76377C14.1968 3.76377 14.247 3.78192 14.2863 3.81487L16.8333 5.94653C16.9034 6.00521 16.9597 6.07777 16.9983 6.1593C17.0368 6.24082 17.0568 6.3294 17.0568 6.41903V16.0415C17.0568 16.0968 17.034 16.1498 16.9936 16.1888C16.9531 16.2279 16.8983 16.2499 16.841 16.2499L14.0369 16.2507ZM4.33024 17.5007H16.841C17.2415 17.5007 17.6256 17.3471 17.9087 17.0736C18.1919 16.8001 18.351 16.4291 18.351 16.0424V6.41903C18.3509 6.15029 18.291 5.8847 18.1753 5.64028C18.0596 5.39586 17.8909 5.1783 17.6806 5.00237L15.1335 2.86987C14.859 2.64013 14.508 2.51367 14.1448 2.51367C13.7815 2.51367 13.4305 2.64013 13.156 2.86987L10.6089 5.00153L10.5856 5.02153L10.5623 5.0007L8.01532 2.86987C7.74081 2.64013 7.38976 2.51367 7.02653 2.51367C6.66331 2.51367 6.31226 2.64013 6.03775 2.86987L3.49072 5.00153C3.28038 5.17747 3.11166 5.39502 2.996 5.63945C2.88033 5.88387 2.82041 6.14945 2.82031 6.4182V16.0424C2.82031 16.8482 3.49676 17.5007 4.33024 17.5007ZM7.8928 7.5007C7.8928 7.72171 7.8019 7.93367 7.64009 8.08995C7.47828 8.24623 7.25882 8.33403 7.02998 8.33403C6.80115 8.33403 6.58169 8.24623 6.41988 8.08995C6.25807 7.93367 6.16717 7.72171 6.16717 7.5007C6.16717 7.27969 6.25807 7.06772 6.41988 6.91144C6.58169 6.75516 6.80115 6.66737 7.02998 6.66737C7.25882 6.66737 7.47828 6.75516 7.64009 6.91144C7.8019 7.06772 7.8928 7.27969 7.8928 7.5007ZM7.02998 11.6649C7.25882 11.6649 7.47828 11.5771 7.64009 11.4208C7.8019 11.2645 7.8928 11.0525 7.8928 10.8315C7.8928 10.6105 7.8019 10.3986 7.64009 10.2423C7.47828 10.086 7.25882 9.9982 7.02998 9.9982C6.80115 9.9982 6.58169 10.086 6.41988 10.2423C6.25807 10.3986 6.16717 10.6105 6.16717 10.8315C6.16717 11.0525 6.25807 11.2645 6.41988 11.4208C6.58169 11.5771 6.80115 11.6649 7.02998 11.6649ZM14.1413 8.33403C13.9125 8.33403 13.693 8.24623 13.5312 8.08995C13.3694 7.93367 13.2785 7.72171 13.2785 7.5007C13.2785 7.27969 13.3694 7.06772 13.5312 6.91144C13.693 6.75516 13.9125 6.66737 14.1413 6.66737C14.3701 6.66737 14.5896 6.75516 14.7514 6.91144C14.9132 7.06772 15.0041 7.27969 15.0041 7.5007C15.0041 7.72171 14.9132 7.93367 14.7514 8.08995C14.5896 8.24623 14.3701 8.33403 14.1413 8.33403ZM13.2785 10.8315C13.2785 11.0525 13.3694 11.2645 13.5312 11.4208C13.693 11.5771 13.9125 11.6649 14.1413 11.6649C14.3701 11.6649 14.5896 11.5771 14.7514 11.4208C14.9132 11.2645 15.0041 11.0525 15.0041 10.8315C15.0041 10.6105 14.9132 10.3986 14.7514 10.2423C14.5896 10.086 14.3701 9.9982 14.1413 9.9982C13.9125 9.9982 13.693 10.086 13.5312 10.2423C13.3694 10.3986 13.2785 10.6105 13.2785 10.8315Z" fill="white"/>
</svg>
